<svg xmlns="http://www.w3.org/2000/svg" version="1.0" viewBox="0 0 1024 683">
  <defs/>
  <path fill="#F1F1F1" d="M0 0h1024v683H0z"/>
  <path fill="#EE4023" d="M511.163 491.075c62.838 0 113.733-50.926 113.733-113.686 0-62.816-50.895-113.745-113.733-113.745-62.747 0-113.702 50.929-113.702 113.745-.001 62.759 50.955 113.686 113.702 113.686zM505.3450263 191.9514809l11.579-.0127369.0622391 56.581-11.579.0127369zM581.215 268.622l-10.121-5.619 27.624-49.788 10.137 5.627zM617.7503283 307.8698603l48.1671036-29.673063 6.075808 9.8626176-48.1671036 29.673063zM415.2605718 218.4421138l10.112832-5.6506752 27.516798 49.24593-10.112832 5.6506752zM351.9992836 287.5413888l5.9248396-9.9503952 48.2707152 28.7421996-5.9248396 9.9503952z"/>
</svg>